<?xml version="1.0" encoding="iso-8859-1"?>
<!-- Generator: Adobe Illustrator 19.0.0, SVG Export Plug-In . SVG Version: 6.00 Build 0)  -->
<svg version="1.1" id="Layer_1" xmlns="http://www.w3.org/2000/svg" xmlns:xlink="http://www.w3.org/1999/xlink" x="0px" y="0px"
	 viewBox="0 0 512 512" style="enable-background:new 0 0 512 512;" xml:space="preserve">
<rect x="21.664" y="68.64" style="fill:#F33052;" width="468.64" height="286"/>
<path d="M480,77.632V346.96H32V77.632H480 M488,45.632H24c-13.2,0-24,10.8-24,24V354.96c0,13.2,10.8,24,24,24h464
	c13.2,0,24-10.8,24-24V69.632C512,56.432,501.2,45.632,488,45.632L488,45.632z"/>
<rect x="216" y="378.976" style="fill:#494949;" width="80" height="71.328"/>
<rect x="142.992" y="434.368" width="225.92" height="32"/>
<polygon points="216,378.976 282.752,378.976 216,408.72 "/>
<g style="opacity:0.35;">
	<polygon style="fill:#FFFFFF;" points="32,77.632 168,77.632 32,160.64 	"/>
</g>
<g>
	<rect x="170" y="118.256" style="fill:#FFFFFF;" width="128" height="16"/>
	<rect x="214" y="156.256" style="fill:#FFFFFF;" width="128" height="16"/>
	<rect x="170" y="204.256" style="fill:#FFFFFF;" width="128" height="16"/>
	<rect x="214" y="242.208" style="fill:#FFFFFF;" width="128" height="16"/>
	<rect x="170" y="290.208" style="fill:#FFFFFF;" width="128" height="16"/>
</g>
<g>
</g>
<g>
</g>
<g>
</g>
<g>
</g>
<g>
</g>
<g>
</g>
<g>
</g>
<g>
</g>
<g>
</g>
<g>
</g>
<g>
</g>
<g>
</g>
<g>
</g>
<g>
</g>
<g>
</g>
</svg>
